<svg width="78" height="78" viewBox="0 0 78 78" fill="none" xmlns="http://www.w3.org/2000/svg">
<path d="M39 78C60.5391 78 78 60.5391 78 39C78 17.4609 60.5391 0 39 0C17.4609 0 0 17.4609 0 39C0 60.5391 17.4609 78 39 78Z" fill="#1877F2"/>
<path d="M50.2333 30.1902H42.3208V25.0008C42.3208 23.052 43.6125 22.5976 44.5223 22.5976C45.4299 22.5976 50.106 22.5976 50.106 22.5976V14.03L42.4161 14C33.8795 14 31.9369 20.39 31.9369 24.4792V30.1902H27V39.0186H31.9369C31.9369 50.3486 31.9369 64 31.9369 64H42.3208C42.3208 64 42.3208 50.214 42.3208 39.0186H49.3277L50.2333 30.1902Z" fill="white"/>
</svg>
