<svg width="78" height="78" viewBox="0 0 78 78" fill="none" xmlns="http://www.w3.org/2000/svg">
<circle cx="39" cy="39" r="39" fill="url(#paint0_linear)"/>
<path d="M39 25.996C31.9436 25.996 26.0968 31.7419 26.0968 38.8992C26.0968 46.0565 31.8428 51.8024 39 51.8024C46.1573 51.8024 51.9033 45.9557 51.9033 38.8992C51.9033 31.8427 46.0565 25.996 39 25.996ZM39 47.1653C34.4637 47.1653 30.7339 43.4355 30.7339 38.8992C30.7339 34.3629 34.4637 30.6331 39 30.6331C43.5363 30.6331 47.2662 34.3629 47.2662 38.8992C47.2662 43.4355 43.5363 47.1653 39 47.1653Z" fill="white"/>
<path d="M52.4073 28.6169C54.0218 28.6169 55.3307 27.3081 55.3307 25.6936C55.3307 24.079 54.0218 22.7702 52.4073 22.7702C50.7927 22.7702 49.4839 24.079 49.4839 25.6936C49.4839 27.3081 50.7927 28.6169 52.4073 28.6169Z" fill="white"/>
<path d="M59.9677 18.1331C57.3468 15.4113 53.6169 14 49.3831 14H28.6169C19.8468 14 14 19.8468 14 28.6169V49.2823C14 53.6169 15.4113 57.3468 18.2339 60.0685C20.9556 62.6895 24.5847 64 28.7177 64H49.2823C53.6169 64 57.246 62.5887 59.8669 60.0685C62.5887 57.4476 64 53.7177 64 49.3831V28.6169C64 24.3831 62.5887 20.754 59.9677 18.1331ZM59.3629 49.3831C59.3629 52.5081 58.4556 55.0282 56.6411 56.7419C54.8266 58.4556 52.3065 59.3629 49.2823 59.3629H28.7177C25.6935 59.3629 23.1734 58.4556 21.3589 56.7419C19.5444 54.9274 18.6371 52.4073 18.6371 49.2823V28.6169C18.6371 25.5927 19.5444 23.0726 21.3589 21.2581C23.0726 19.5444 25.6935 18.6371 28.7177 18.6371H49.4839C52.5081 18.6371 55.0282 19.5444 56.8427 21.3589C58.5565 23.1734 59.5645 25.6935 59.5645 28.6169V49.3831H59.3629Z" fill="white"/>
<defs>
<linearGradient id="paint0_linear" x1="65" y1="11.5" x2="11" y2="66" gradientUnits="userSpaceOnUse">
<stop stop-color="#1400C8"/>
<stop offset="0.479167" stop-color="#B900B4"/>
<stop offset="1" stop-color="#F50000"/>
</linearGradient>
</defs>
</svg>
