<svg width="78" height="78" viewBox="0 0 78 78" fill="none" xmlns="http://www.w3.org/2000/svg">
<path d="M39 78C60.5391 78 78 60.5391 78 39C78 17.4609 60.5391 0 39 0C17.4609 0 0 17.4609 0 39C0 60.5391 17.4609 78 39 78Z" fill="#4680C2"/>
<path fill-rule="evenodd" clip-rule="evenodd" d="M62.8527 26.0107C63.2002 24.8517 62.8527 24 61.1985 24H55.7285C54.3376 24 53.6964 24.7357 53.3486 25.547C53.3486 25.547 50.567 32.3273 46.6263 36.7315C45.3514 38.0064 44.7719 38.4121 44.0764 38.4121C43.7288 38.4121 43.2072 38.0064 43.2072 36.8475V26.0107C43.2072 24.6199 42.8218 24 41.6627 24H33.0669C32.1978 24 31.6751 24.6455 31.6751 25.2573C31.6751 26.5758 33.6453 26.8799 33.8484 30.5888V38.644C33.8484 40.4101 33.5294 40.7303 32.834 40.7303C30.9796 40.7303 26.4689 33.9197 23.7936 26.1266C23.2693 24.6119 22.7435 24 21.3455 24H15.8755C14.3126 24 14 24.7357 14 25.547C14 26.9958 15.8545 34.1818 22.6347 43.6857C27.1548 50.1761 33.5233 53.6944 39.3184 53.6944C42.7954 53.6944 43.2256 52.913 43.2256 51.5669V46.6615C43.2256 45.0986 43.5549 44.7867 44.656 44.7867C45.4673 44.7867 46.8581 45.1924 50.1034 48.3217C53.8123 52.0306 54.4237 53.6944 56.5099 53.6944H61.9799C63.5428 53.6944 64.3242 52.913 63.8734 51.3708C63.3801 49.8339 61.6093 47.604 59.2597 44.9606C57.9847 43.4539 56.0724 41.8313 55.4928 41.0198C54.6815 39.9769 54.9133 39.5131 55.4928 38.586C55.4928 38.586 62.1572 29.1979 62.8527 26.0107Z" fill="white"/>
</svg>
