<svg width="78" height="78" viewBox="0 0 78 78" fill="none" xmlns="http://www.w3.org/2000/svg">
<path d="M39 78C60.5391 78 78 60.5391 78 39C78 17.4609 60.5391 0 39 0C17.4609 0 0 17.4609 0 39C0 60.5391 17.4609 78 39 78Z" fill="white"/>
<path d="M54.8669 38.29H23.1331C18.0889 38.29 14 42.383 14 47.4261V54.7671C14 59.8102 18.0889 63.9022 23.1331 63.9022H54.8669C59.91 63.9022 64 59.8102 64 54.7671V47.4261C64 42.383 59.91 38.29 54.8669 38.29Z" fill="white"/>
<path d="M54.8669 38.294H23.1331C18.0889 38.294 14 42.387 14 47.4301V54.7711C14 59.8142 18.0889 63.9062 23.1331 63.9062H54.8669C59.91 63.9062 64 59.8142 64 54.7711V47.4301C64 42.387 59.91 38.294 54.8669 38.294ZM29.8002 44.0089H26.8499V58.6683H23.9996V44.0089H21.0514V41.5154H29.8002V44.0089ZM38.134 58.6683H35.6058V57.2819C35.1359 57.7947 34.6516 58.1862 34.146 58.4502C33.6403 58.7254 33.152 58.8539 32.677 58.8539C32.0898 58.8539 31.6535 58.6673 31.3548 58.2881C31.0612 57.9099 30.9113 57.3492 30.9113 56.5918V46.0131H33.4395V55.7212C33.4395 56.0209 33.4956 56.236 33.5965 56.3695C33.7056 56.5072 33.8789 56.5704 34.1164 56.5704C34.2999 56.5704 34.5364 56.4827 34.8208 56.3053C35.1073 56.1259 35.3683 55.9016 35.6058 55.6243V46.0121H38.134V58.6683ZM47.3129 56.0555C47.3129 56.9496 47.1142 57.6367 46.7176 58.1158C46.3231 58.5949 45.7461 58.8304 44.9988 58.8304C44.5014 58.8304 44.0589 58.7407 43.6746 58.5552C43.2882 58.3717 42.9243 58.0893 42.593 57.6978V58.6673H40.0342V41.5154H42.593V47.0397C42.9355 46.6574 43.2974 46.3608 43.6756 46.162C44.062 45.9591 44.4504 45.8612 44.8439 45.8612C45.6441 45.8612 46.2538 46.1283 46.6758 46.6676C47.0999 47.2069 47.3109 47.9969 47.3109 49.0327V56.0555H47.3129ZM56.0831 52.6455H51.2449V55.03C51.2449 55.6947 51.3264 56.1575 51.4916 56.4154C51.6608 56.6743 51.9452 56.8007 52.35 56.8007C52.77 56.8007 53.0605 56.6917 53.2297 56.4735C53.3928 56.2533 53.4805 55.7742 53.4805 55.03V54.454H56.0831V55.1034C56.0831 56.4001 55.7681 57.3777 55.1289 58.0373C54.4999 58.6908 53.5519 59.0149 52.2918 59.0149C51.1572 59.0149 50.2632 58.6694 49.6138 57.9741C48.9665 57.2829 48.6362 56.3237 48.6362 55.1044V49.4201C48.6362 48.3262 48.997 47.4261 49.7137 46.7359C50.4283 46.0458 51.3489 45.7012 52.4815 45.7012C53.6406 45.7012 54.5305 46.0203 55.1513 46.6605C55.7722 47.3017 56.0831 48.2192 56.0831 49.4191V52.6455Z" fill="#FF0000"/>
<path d="M52.3745 47.9133C51.9708 47.9133 51.6833 48.0265 51.5079 48.263C51.3285 48.4852 51.2449 48.8655 51.2449 49.3966V50.676H53.4805V49.3966C53.4805 48.8655 53.3908 48.4842 53.2135 48.263C53.0432 48.0275 52.7588 47.9133 52.3745 47.9133Z" fill="#FF0000"/>
<path d="M43.6511 47.8705C43.4717 47.8705 43.2903 47.9103 43.1159 47.9928C42.9386 48.0734 42.7653 48.2069 42.594 48.3802V56.2635C42.7969 56.4674 42.9977 56.6244 43.1934 56.7141C43.3881 56.8007 43.59 56.8497 43.8051 56.8497C44.116 56.8497 44.3423 56.7599 44.4881 56.5785C44.6318 56.3991 44.7052 56.1126 44.7052 55.7079V49.1723C44.7052 48.7421 44.6196 48.42 44.4402 48.1988C44.2546 47.9806 43.9916 47.8705 43.6511 47.8705Z" fill="#FF0000"/>
<path d="M27.2882 33.8982H30.4933V26.0588L34.2254 15H30.9673L28.9835 22.554H28.7817L26.699 15H23.4705L27.2882 26.4115V33.8982Z" fill="#282828"/>
<path d="M38.5683 34.2499C39.8629 34.2499 40.8783 33.9105 41.6184 33.2315C42.3534 32.5495 42.7214 31.6188 42.7214 30.426V23.2248C42.7214 22.1636 42.3452 21.2899 41.596 20.6161C40.8416 19.9443 39.8752 19.6058 38.6967 19.6058C37.402 19.6058 36.3714 19.9259 35.6048 20.5651C34.8402 21.2043 34.4559 22.0616 34.4559 23.1453V30.371C34.4559 31.5566 34.83 32.4945 35.5772 33.1979C36.3245 33.8982 37.3235 34.2499 38.5683 34.2499ZM37.3878 23.0392C37.3878 22.7365 37.4968 22.4918 37.7099 22.3002C37.9311 22.1126 38.2115 22.0219 38.5601 22.0219C38.9363 22.0219 39.2411 22.1126 39.4735 22.3002C39.7049 22.4918 39.8201 22.7365 39.8201 23.0392V30.635C39.8201 31.0071 39.707 31.3027 39.4776 31.5158C39.2503 31.7299 38.9444 31.8349 38.5601 31.8349C38.1839 31.8349 37.8934 31.7329 37.6895 31.5189C37.4887 31.3099 37.3867 31.0163 37.3867 30.634V23.0392H37.3878Z" fill="#282828"/>
<path d="M47.0204 34.1021C47.5556 34.1021 48.1051 33.9492 48.6708 33.6556C49.2427 33.3579 49.7902 32.9226 50.3111 32.3548V33.8992H53.1584V19.9585H50.3111V30.5402C50.046 30.843 49.7514 31.0917 49.4354 31.2895C49.1133 31.4852 48.8482 31.5831 48.6392 31.5831C48.3721 31.5831 48.1754 31.5097 48.0602 31.3578C47.943 31.212 47.8767 30.9735 47.8767 30.6462V19.9585H45.0335V31.6096C45.0335 32.4404 45.2007 33.0613 45.531 33.4731C45.8674 33.8911 46.3588 34.1021 47.0204 34.1021Z" fill="#282828"/>
</svg>
