<?xml version="1.0" standalone="no"?>
<!DOCTYPE svg PUBLIC "-//W3C//DTD SVG 20010904//EN"
 "http://www.w3.org/TR/2001/REC-SVG-20010904/DTD/svg10.dtd">
<svg version="1.0" xmlns="http://www.w3.org/2000/svg"
 width="260.000000pt" height="260.000000pt" viewBox="0 0 260.000000 260.000000"
 preserveAspectRatio="xMidYMid meet">
<metadata>
Created by potrace 1.11, written by Peter Selinger 2001-2013
</metadata>
<g transform="translate(0.000000,260.000000) scale(0.100000,-0.100000)"
fill="#000000" stroke="none">
<path d="M1218 2545 c-2 -2 -27 -5 -56 -9 -73 -9 -112 -15 -147 -24 l-30 -8
-3 -143 -3 -142 -27 -11 c-15 -6 -48 -21 -73 -34 l-46 -24 -46 48 c-24 26 -69
71 -100 101 l-55 53 -73 -55 c-110 -82 -208 -182 -272 -277 l-37 -55 53 -53
c28 -30 73 -75 99 -99 46 -44 47 -46 33 -72 -8 -14 -24 -47 -34 -73 l-20 -47
-143 -3 -143 -3 -17 -85 c-28 -137 -29 -285 -4 -440 18 -116 15 -110 55 -111
20 0 85 -1 144 -1 l108 0 15 -38 c8 -20 24 -53 34 -71 l18 -34 -101 -102 -100
-102 56 -75 c31 -41 85 -103 119 -137 59 -58 197 -169 211 -169 3 0 48 43 100
95 52 52 99 95 104 95 5 0 28 -9 51 -20 23 -11 53 -25 67 -30 l25 -10 0 -143
0 -144 43 -8 c23 -4 49 -9 57 -11 121 -27 359 -22 488 9 l47 12 5 144 5 143
50 20 c28 11 54 24 60 29 20 20 44 5 134 -87 52 -52 99 -93 105 -91 21 9 132
96 181 144 53 50 134 144 174 202 l23 33 -96 97 c-53 53 -96 100 -96 104 0 5
9 28 20 53 11 24 25 55 29 68 9 23 11 23 151 23 77 0 142 2 145 4 2 3 9 36 16
74 6 39 13 81 16 95 8 51 9 233 2 283 -5 29 -11 68 -14 87 -3 19 -9 49 -13 65
l-8 30 -142 5 -142 5 -30 63 c-17 35 -30 68 -30 74 0 5 28 38 63 72 34 35 77
79 96 99 l34 36 -55 73 c-82 109 -158 183 -272 267 l-58 43 -102 -100 c-99
-99 -102 -101 -126 -87 -14 8 -46 24 -72 35 l-47 19 -3 143 -3 142 -60 13
c-103 21 -137 25 -237 27 -54 2 -99 2 -100 1z m320 -303 c40 -11 76 -22 78
-25 3 -3 5 -138 4 -301 l0 -296 299 0 300 0 15 -52 c50 -175 50 -360 0 -535
-14 -50 -17 -53 -47 -54 -18 0 -152 -1 -299 -1 l-268 -1 0 -298 0 -298 -52
-16 c-172 -51 -381 -49 -555 6 l-33 11 0 298 0 298 -287 0 c-159 0 -293 1
-300 1 -6 1 -18 25 -26 53 -50 177 -49 355 4 551 l10 37 299 0 300 0 0 298 0
298 53 17 c28 9 72 19 97 22 25 4 47 9 49 11 3 2 68 2 145 0 101 -3 162 -10
214 -24z"/>
</g>
</svg>
